<?xml version="1.0" encoding="UTF-8"?>
<svg id="Layer_1" data-name="Layer 1" xmlns="http://www.w3.org/2000/svg" viewBox="0 0 1000 1000">
  <defs>
    <style>
      .cls-1 {
        fill: #788287;
      }

      .cls-1, .cls-2, .cls-3, .cls-4, .cls-5, .cls-6, .cls-7, .cls-8, .cls-9, .cls-10, .cls-11, .cls-12, .cls-13, .cls-14 {
        stroke-width: 0px;
      }

      .cls-2 {
        fill: #51575b;
      }

      .cls-3 {
        fill: #636c72;
      }

      .cls-4 {
        fill: #181919;
      }

      .cls-5 {
        fill: #3e4347;
      }

      .cls-6 {
        fill: #212528;
      }

      .cls-7 {
        fill: #ddd;
      }

      .cls-8 {
        fill: #bfbebe;
      }

      .cls-9 {
        fill: #333;
      }

      .cls-10 {
        fill: #fff;
      }

      .cls-11 {
        fill: #ffce31;
      }

      .cls-12 {
        fill: #ebf2f2;
      }

      .cls-13 {
        fill: #f5f5f5;
      }

      .cls-14 {
        fill: #686b6d;
      }

      .cls-15 {
        isolation: isolate;
        opacity: .5;
      }
    </style>
  </defs>
  <g>
    <path class="cls-6" d="m138.45,203.52h13.67c1.7,0,3.08,1.38,3.08,3.08v3.84c0,1.7-1.38,3.08-3.08,3.08h-13.67c-1.7,0-3.08-1.38-3.08-3.08v-3.84c0-1.7,1.38-3.08,3.08-3.08Z" transform="translate(-106.65 175.13) rotate(-47.58)"/>
    <path class="cls-6" d="m182.55,162.02h7.3c.91,0,1.64.74,1.64,1.64v2.05c0,.91-.74,1.64-1.64,1.64h-7.3c-.91,0-1.64-.74-1.64-1.64v-2.05c0-.91.74-1.64,1.64-1.64Z" transform="translate(-60.98 191.07) rotate(-47.58)"/>
    <path class="cls-6" d="m229.7,190.88c3.14,2.87,3.36,7.74.49,10.88l-50.72,55.51c-2.87,3.14-7.74,3.36-10.88.49l-1.7-1.56,61.1-66.88,1.7,1.56h0Z"/>
    <path class="cls-2" d="m137.05,228.94c-3.14-2.87-3.36-7.74-.49-10.88l50.72-55.51c2.87-3.14,7.74-3.36,10.88-.49l1.7,1.56-61.1,66.88-1.7-1.56Z"/>
    <rect class="cls-5" x="138.51" y="190.28" width="90.59" height="40.03" transform="translate(-95.43 204.14) rotate(-47.58)"/>
    <path class="cls-2" d="m188.28,170.95l-30.63,33.52-15.27-20.12c-.77-1.22-1.15-4.13-.76-5.3,2.38-7.2,12.94-18.75,19.89-21.77,1.13-.49,4.07-.37,5.35.28l21.41,13.39Z"/>
    <path class="cls-5" d="m197.64,182.49l-27.65,30.27-12.52-17c-.62-1.04-.85-3.56-.47-4.6,2.31-6.35,11.84-16.79,17.96-19.66,1-.47,3.53-.46,4.62.06l18.06,10.94Z"/>
    <path class="cls-1" d="m213.22,182.31c12.7,11.61,13.58,31.3,1.99,43.99-11.6,12.7-31.29,13.59-44,1.99-12.69-11.6-13.58-31.3-1.98-44,11.59-12.69,31.3-13.58,43.99-1.98Z"/>
    <path class="cls-6" d="m210.88,184.86c11.29,10.32,12.07,27.82,1.77,39.1-10.31,11.29-27.82,12.08-39.11,1.77-11.28-10.31-12.07-27.82-1.76-39.11,10.31-11.28,27.82-12.07,39.1-1.76Z"/>
    <circle class="cls-5" cx="192.21" cy="205.29" r="22.49"/>
    <circle class="cls-6" cx="192.21" cy="205.29" r="12.11" transform="translate(-81.86 142.25) rotate(-33.93)"/>
    <g class="cls-15">
      <circle class="cls-13" cx="191.59" cy="191.75" r="6.97" transform="translate(-27.4 351.49) rotate(-81.13)"/>
    </g>
    <g class="cls-15">
      <circle class="cls-13" cx="192.49" cy="211.4" r="4.33" transform="translate(-74.8 109.91) rotate(-26.89)"/>
    </g>
    <g class="cls-15">
      <circle class="cls-13" cx="192.99" cy="222.4" r="2.68"/>
    </g>
    <path class="cls-3" d="m177.71,237.33c1.26,1.15,1.34,3.09.2,4.35l-8.83,9.66c-1.15,1.25-3.09,1.34-4.35.2l-20.27-18.52c-1.26-1.15-1.34-3.1-.2-4.35l8.83-9.66c1.15-1.26,3.1-1.34,4.35-.2l20.27,18.52h0Z"/>
    <circle class="cls-6" cx="145.09" cy="216.9" r="4.49" transform="translate(-88.37 100.3) rotate(-29.68)"/>
    <rect class="cls-10" x="144.81" y="169.98" width="26.89" height="8.57" rx="2.83" ry="2.83" transform="translate(-77.14 173.55) rotate(-47.58)"/>
    <polygon class="cls-11" points="161.82 167.05 165.51 144.01 159.69 143.55 161.82 167.05"/>
    <polygon class="cls-11" points="181.63 154.32 177.53 150.58 166.86 167.98 181.63 154.32"/>
    <polygon class="cls-11" points="146.5 147.31 141.97 152.27 156.9 170.75 146.5 147.31"/>
    <polygon class="cls-11" points="152.07 177.72 127.97 178.28 128.84 184.14 152.07 177.72"/>
    <polygon class="cls-11" points="134.17 160.81 129.58 165.83 154.45 173.43 134.17 160.81"/>
    <polygon class="cls-11" points="136.08 195.95 140.17 199.69 153.01 183.13 136.08 195.95"/>
  </g>
  <path class="cls-13" d="m280.17,97.22c8.69,13.45,4.1,28.18-11.97,38.57l-13.8,8.92,11.4,17.64-11.35,7.34-39.52-61.14,25.15-16.26c16.07-10.39,31.33-8.61,40.09,4.92Zm-11.44,7.4c-4.97-7.69-13-8.81-22.96-2.37l-13.28,8.58,15.7,24.28,13.28-8.58c9.96-6.44,12.23-14.22,7.26-21.91Z"/>
  <path class="cls-13" d="m346.97,39.96l27.65,67.34-12.51,5.14-11.85-28.86-34.83,14.3,11.85,28.86-12.51,5.14-27.65-67.34,12.51-5.14,11.42,27.8,34.83-14.3-11.42-27.8,12.51-5.14Z"/>
  <path class="cls-13" d="m378.03,67.81c-4.02-21.15,9.35-39.89,31.53-44.1,22.17-4.22,41.47,8.21,45.51,29.46,4.04,21.25-9.35,39.89-31.53,44.11-22.17,4.21-41.49-8.31-45.51-29.46Zm63.65-12.1c-2.78-14.61-15.51-23.09-29.91-20.36-14.41,2.74-23.13,15.3-20.36,29.91,2.78,14.61,15.51,23.09,29.91,20.36s23.13-15.3,20.36-29.91Z"/>
  <path class="cls-13" d="m485.95,27.81l-24.13.39-.19-11.44,61.77-1.01.19,11.44-24.12.39,1,61.35-13.52.22-1-61.35Z"/>
  <path class="cls-13" d="m531.33,51.93c3.33-21.27,22.22-34.42,44.52-30.93,22.3,3.49,36.29,21.68,32.95,43.05s-22.22,34.42-44.52,30.93c-22.3-3.49-36.28-21.78-32.95-43.05Zm64.01,10.01c2.3-14.69-6.84-26.96-21.32-29.23s-26.93,6.63-29.23,21.32c-2.3,14.69,6.84,26.96,21.32,29.23s26.93-6.63,29.23-21.32Z"/>
  <path class="cls-13" d="m673.05,85.78l12.01,4.41-10,27.24c-9.24,3.14-20.28,2.41-29.94-1.14-21.19-7.78-31.39-28.26-23.9-48.66s28.53-29.41,49.91-21.56c11.42,4.2,19.59,11.52,23.34,21.21l-10.87,4.87c-3.4-7.34-8.65-12.04-15.97-14.73-14.55-5.34-28.42.75-33.62,14.91-5.09,13.86,1.43,27.78,15.88,33.09,4.88,1.79,10.02,2.57,15.35,1.65l7.82-21.28Z"/>
  <path class="cls-13" d="m726.19,156.01l-1.92-25.92c-.86-.39-1.66-.86-2.47-1.34l-14.13-8.38-10.82,18.25-11.63-6.89,37.12-62.62,25.77,15.27c16.46,9.76,21.67,24.21,13.46,38.08-5.62,9.48-14.59,13.6-25.05,11.87l2.21,29.11-12.53-7.42Zm15.54-62.12l-13.6-8.06-14.79,24.96,13.6,8.06c10.2,6.04,18.23,4.52,22.9-3.35,4.67-7.87,2.09-15.56-8.11-21.61Z"/>
  <path class="cls-13" d="m793.84,188.21l-27.51-23.83-16.46,8.03-10.53-9.12,72.43-33.57,10.06,8.72-22.83,76.54-10.69-9.26,5.53-17.5Zm3.57-10.95l10.46-33.04-31.13,15.13,20.67,17.91Z"/>
  <path class="cls-13" d="m877.32,238.07c-12.46,10.06-27.6,7.04-39.62-7.85l-10.32-12.79-16.35,13.2-8.49-10.52,56.65-45.73,18.81,23.31c12.02,14.89,11.86,30.26-.69,40.38Zm-8.56-10.6c7.12-5.75,7.4-13.85-.05-23.08l-9.93-12.3-22.5,18.16,9.93,12.3c7.45,9.23,15.43,10.67,22.55,4.92Z"/>
  <path class="cls-13" d="m941.3,298.44l-64.04,34.62-6.43-11.89,27.45-14.84-17.9-33.12-27.45,14.84-6.43-11.89,64.04-34.62,6.43,11.89-26.44,14.29,17.9,33.12,26.44-14.29,6.43,11.89Z"/>
  <path class="cls-13" d="m910.8,396.74l-10.78,3.51-16.92-51.91,69.21-22.56,16.47,50.53-10.78,3.51-12.28-37.67-18,5.87,10.89,33.42-10.58,3.45-10.89-33.42-19.08,6.22,12.73,39.06Z"/>
  <path class="cls-13" d="m909.51,459.17l18.96-17.78c-.24-.91-.37-1.84-.51-2.76l-2.36-16.26-21,3.05-1.94-13.38,72.04-10.47,4.31,29.64c2.75,18.94-5.22,32.08-21.17,34.39-10.91,1.59-19.75-2.81-24.97-12.03l-21.26,20.01-2.09-14.41Zm58.09-26.94l-2.27-15.64-28.71,4.17,2.27,15.64c1.71,11.73,7.94,17.03,17,15.71,9.06-1.32,13.42-8.15,11.72-19.88Z"/>
  <g>
    <polygon class="cls-14" points="948.7 525.65 951.86 508.18 973.6 510.68 948.7 525.65"/>
    <polygon class="cls-9" points="982.27 511.14 965.38 518.98 965.33 527.89 982.83 519.37 982.27 511.14"/>
    <polygon class="cls-9" points="965.45 506.44 965.43 510.77 975.3 506.4 965.45 506.44"/>
    <polygon class="cls-9" points="983.43 528.32 965.27 537.62 965.21 548.28 984.09 538.09 983.43 528.32"/>
    <polygon class="cls-9" points="984.81 548.79 965.14 560 965.07 572.96 985.6 560.58 984.81 548.79"/>
    <polygon class="cls-9" points="964.93 598.07 972.12 598.04 987.46 588.07 986.48 573.6 964.99 587.37 964.93 598.07"/>
    <polygon class="cls-10" points="984.09 538.09 965.21 548.28 965.14 560 984.81 548.79 984.09 538.09"/>
    <polygon class="cls-10" points="982.83 519.37 965.33 527.89 965.27 537.62 983.43 528.32 982.83 519.37"/>
    <polygon class="cls-10" points="986.48 573.6 985.6 560.58 965.07 572.96 964.99 587.37 986.48 573.6"/>
    <polygon class="cls-10" points="981.95 506.37 975.3 506.4 965.43 510.77 965.38 518.98 982.27 511.14 981.95 506.37"/>
    <polygon class="cls-10" points="978 598.01 988.13 597.97 987.46 588.07 972.12 598.04 978 598.01"/>
    <polygon class="cls-12" points="972.12 598.04 964.91 601.86 987.38 601.77 988.13 597.97 972.12 598.04"/>
    <polygon class="cls-14" points="964.93 598.07 972.12 598.04 964.91 601.86 964.93 598.07"/>
    <polygon class="cls-9" points="964.78 505.96 950.28 504.29 933.85 595.14 954.24 597.49 964.78 505.96"/>
    <polygon class="cls-10" points="944.54 536.04 942.63 546.56 958.55 560.01 959.89 548.37 944.54 536.04"/>
    <polygon class="cls-10" points="947.87 517.64 946.27 526.44 961.11 537.78 962.23 528.12 947.87 517.64"/>
    <polygon class="cls-10" points="940.54 558.15 938.22 570.95 955.42 587.2 957.07 572.89 940.54 558.15"/>
    <polygon class="cls-10" points="964.18 511.12 954.79 504.81 950.28 504.29 949.33 509.54 963.25 519.26 964.18 511.12"/>
    <polygon class="cls-10" points="947.81 596.75 935.65 585.18 933.85 595.14 947.81 596.75"/>
    <polygon class="cls-12" points="947.81 596.75 953.8 601.27 934.04 599 933.85 595.14 947.81 596.75"/>
    <polygon class="cls-14" points="954.24 597.49 947.81 596.75 953.8 601.27 954.24 597.49"/>
    <polygon class="cls-9" points="950.28 504.29 921.29 500.95 890.88 590.19 933.85 595.14 950.28 504.29"/>
    <polygon class="cls-10" points="931.46 594.86 948.67 504.1 950.58 504.33 934.14 595.17 931.46 594.86"/>
    <polygon class="cls-10" points="905.2 591.84 930.95 502.06 932.56 502.25 907.59 592.12 905.2 591.84"/>
    <polygon class="cls-10" points="917.14 593.21 939.01 502.99 940.62 503.18 919.52 593.49 917.14 593.21"/>
    <polygon class="cls-10" points="926.92 519.3 927.36 517.74 936.09 518.74 935.71 520.31 926.92 519.3"/>
    <polygon class="cls-4" points="947.22 520.94 950.38 503.47 972.11 505.97 947.22 520.94"/>
    <path class="cls-10" d="m965.33,508.68c-.91-.1-1.57-.81-1.49-1.57.08-.75.87-1.28,1.76-1.18.9.1,1.56.79,1.49,1.55-.07.76-.86,1.3-1.77,1.2Z"/>
    <path class="cls-10" d="m952.91,507.25c-.91-.1-1.53-.81-1.4-1.56.13-.75.96-1.27,1.85-1.17.89.1,1.52.79,1.41,1.54-.12.76-.95,1.29-1.85,1.19Z"/>
    <path class="cls-10" d="m951.45,516.19c-.95-.11-1.6-.87-1.46-1.7.14-.82,1.01-1.39,1.95-1.29s1.59.86,1.46,1.68c-.13.83-1,1.42-1.95,1.31Z"/>
    <polygon class="cls-14" points="892.83 594.25 890.88 590.19 931.46 594.86 931.66 598.72 892.83 594.25"/>
    <polygon class="cls-12" points="934.04 599 933.85 595.14 931.46 594.86 931.66 598.72 934.04 599"/>
    <polygon class="cls-12" points="920 597.38 919.46 593.48 917.14 593.21 917.68 597.11 920 597.38"/>
    <polygon class="cls-12" points="908.74 596.08 907.52 592.11 905.2 591.84 906.42 595.82 908.74 596.08"/>
  </g>
  <path class="cls-13" d="m935.85,713.09l-56.01-56.29,4.9-12.38,79.4-2.79-5.4,13.63-61.13,1.86,43.22,43.4-4.98,12.57Z"/>
  <path class="cls-13" d="m927.91,725.39l-6.5,11.86-63.85-34.97,6.49-11.86,63.85,34.97Z"/>
  <path class="cls-13" d="m908.25,761.17l-19,25.53c-14.09,18.94-35.4,23.18-52.92,10.14-17.52-13.04-19.58-34.66-5.48-53.6l19-25.53,58.4,43.46Zm-67.85-11.6c-9.69,13.02-8.03,27.34,4.07,36.34,12.1,9,26.29,6.47,35.98-6.54l10.56-14.18-40.05-29.8-10.56,14.18Z"/>
  <path class="cls-13" d="m766.58,828.17l-7.73-8.29,39.93-37.24,49.66,53.24-38.86,36.25-7.73-8.29,28.98-27.03-12.91-13.84-25.71,23.98-7.59-8.14,25.7-23.98-13.69-14.68-30.04,28.02Z"/>
  <path class="cls-13" d="m773.94,855.17c11.6,18.14,6.14,40.51-12.87,52.67s-41.55,7.8-53.2-10.43-6.14-40.51,12.87-52.67c19.02-12.16,41.61-7.71,53.2,10.43Zm-54.59,34.9c8.01,12.53,22.98,15.68,35.34,7.78s15.79-22.81,7.78-35.34c-8.01-12.53-22.98-15.68-35.34-7.78-12.36,7.9-15.79,22.81-7.78,35.34Z"/>
  <path class="cls-13" d="m645.35,923.71l-11.91,4.65-10.56-27.02c4.84-8.48,13.58-15.24,23.17-18.99,21.02-8.21,42.23.36,50.14,20.6,7.91,20.24-1.88,40.92-23.09,49.21-11.33,4.43-22.3,4.36-31.53-.41l4.92-10.85c7.41,3.25,14.46,3.28,21.72.45,14.43-5.64,20.78-19.4,15.29-33.44-5.37-13.75-19.48-19.85-33.82-14.25-4.84,1.89-9.21,4.72-12.59,8.94l8.25,21.12Z"/>
  <path class="cls-13" d="m559.04,906.33l18.61,18.14c.9-.28,1.82-.45,2.74-.63l16.14-3.09-3.99-20.84,13.28-2.54,13.68,71.5-29.42,5.63c-18.79,3.6-32.28-3.78-35.31-19.61-2.07-10.83,1.92-19.85,10.9-25.49l-20.94-20.35,14.3-2.74Zm29.51,56.82l15.53-2.97-5.45-28.5-15.53,2.97c-11.64,2.23-16.65,8.69-14.93,17.68,1.72,8.99,8.74,13.04,20.39,10.82Z"/>
  <path class="cls-13" d="m487.25,927.11l36.4-.59,6.9-16.96,13.93-.23-31.58,73.32-13.31.21-34.04-72.26,14.14-.23,7.55,16.73Zm4.64,10.54l14.24,31.6,13.11-32.04-27.35.44Z"/>
  <path class="cls-13" d="m391.44,945.04c2.66-15.79,16-23.57,34.87-20.38l16.2,2.73,3.49-20.72,13.33,2.25-12.1,71.79-29.54-4.98c-18.87-3.18-28.94-14.79-26.26-30.69Zm13.43,2.26c-1.52,9.02,3.65,15.28,15.34,17.25l15.59,2.63,4.81-28.51-15.59-2.63c-11.69-1.97-18.62,2.24-20.15,11.26Z"/>
  <path class="cls-13" d="m303.49,942.13l25.1-68.34,12.69,4.66-10.76,29.29,35.34,12.98,10.76-29.29,12.69,4.66-25.1,68.34-12.69-4.66,10.36-28.21-35.34-12.98-10.36,28.21-12.69-4.66Z"/>
  <path class="cls-13" d="m261.29,848.25l5.75-9.77,47.05,27.71-36.95,62.73-45.79-26.97,5.75-9.77,34.14,20.11,9.61-16.31-30.29-17.84,5.65-9.59,30.29,17.84,10.19-17.3-35.4-20.85Z"/>
  <path class="cls-13" d="m220.86,800.64l-2.4,25.89c.78.52,1.5,1.13,2.21,1.73l12.55,10.61,13.7-16.21,10.33,8.73-47,55.61-22.88-19.34c-14.62-12.35-17.36-27.47-6.95-39.79,7.12-8.42,16.64-10.99,26.67-7.55l2.65-29.08,11.12,9.4Zm-25.63,58.68l12.07,10.21,18.73-22.16-12.07-10.21c-9.06-7.65-17.23-7.48-23.14-.49-5.91,6.99-4.65,15,4.41,22.66Z"/>
  <g>
    <path class="cls-6" d="m181.64,762.62l-44.89-66.51c-.68-1.01-2.07-1.27-3.11-.57l-44.5,30.03c-1.03.7-1.32,2.08-.63,3.1l44.89,66.51c.68,1.01,2.07,1.27,3.11.57l44.5-30.03c1.03-.7,1.32-2.08.63-3.1Z"/>
    <path class="cls-6" d="m193.02,765.38c2.24-1.51,3.26-4.85,1.76-7.07l-49.1-72.74c-1.41-2.09-4.96-2.52-7.21-1.01l54.54,80.82Z"/>
    <polygon class="cls-7" points="136.49 695.71 181.94 763.06 193.02 765.38 138.48 684.57 136.49 695.71"/>
    <polygon class="cls-8" points="138.51 697.58 180.93 760.44 185.19 760.83 139.74 693.49 138.51 697.58"/>
    <polygon class="cls-6" points="159.01 719.43 168.34 733.25 170.41 733.36 159.68 717.47 159.01 719.43"/>
    <rect class="cls-5" x="110.88" y="708.27" width="48.4" height="74.75" transform="translate(-394.01 203.16) rotate(-34.02)"/>
    <path class="cls-7" d="m112,761.22c-.39-.58-.24-1.36.34-1.75.58-.39,1.36-.24,1.75.34.39.58.24,1.36-.34,1.75-.58.39-1.36.24-1.75-.34Z"/>
    <path class="cls-5" d="m164.75,717.19l7.85,11.63c.27.4.99,1.46-.37,2.38l-9.82-14.55c1.36-.92,2.09.17,2.34.55Z"/>
  </g>
  <path class="cls-13" d="m88.73,676.63c-20.55,7.08-40.82-3.53-48.11-24.67-3.86-11.21-3.15-22.23,2.12-31.2l10.61,5.58c-3.68,6.88-4.2,13.99-1.73,21.17,4.91,14.26,18.5,21.12,32.66,16.25s20.63-18.66,15.72-32.92c-2.47-7.18-7.26-12.46-14.5-15.57l5.02-10.97c9.68,3.82,17.03,12.06,20.93,23.37,7.25,21.04-2.17,41.89-22.72,48.97Z"/>
  <path class="cls-13" d="m63.91,603.1c-21.3,3.1-39.44-11.08-42.69-33.42-3.24-22.33,10.01-41.07,31.41-44.18,21.41-3.11,39.44,11.08,42.69,33.42,3.24,22.33-10.11,41.09-31.41,44.18Zm-9.32-64.12c-14.72,2.14-23.75,14.49-21.64,29s14.28,23.78,29,21.64,23.75-14.49,21.64-29c-2.11-14.51-14.28-23.78-29-21.64Z"/>
  <path class="cls-13" d="m16.11,505.29l1.77-31.77c1.32-23.57,16.75-38.85,38.56-37.64,21.81,1.22,35.44,18.12,34.13,41.69l-1.77,31.77-72.69-4.06Zm63-27.73c.9-16.2-8.37-27.24-23.43-28.08-15.06-.84-25.51,9.1-26.41,25.29l-.99,17.65,49.84,2.78.99-17.65Z"/>
  <path class="cls-13" d="m97.41,371.3l11.02,2.66-12.83,53.07-70.76-17.11,12.49-51.66,11.02,2.66-9.31,38.52,18.4,4.45,8.26-34.17,10.82,2.62-8.26,34.17,19.51,4.72,9.66-39.93Z"/>
  <path class="cls-13" d="m131.26,318.86l-25.47,5.19c-.28.9-.65,1.76-1.02,2.62l-6.52,15.08,19.47,8.42-5.37,12.41-66.82-28.9,11.89-27.49c7.6-17.56,21.28-24.57,36.07-18.17,10.12,4.38,15.33,12.75,14.94,23.35l28.6-5.87-5.78,13.36Zm-63.59-7.56l-6.28,14.51,26.63,11.52,6.28-14.51c4.71-10.88,2.18-18.66-6.22-22.29-8.4-3.63-15.7-.11-20.41,10.77Z"/>
</svg>